<?xml version="1.0" standalone="no"?>
<!DOCTYPE svg PUBLIC "-//W3C//DTD SVG 20010904//EN"
 "http://www.w3.org/TR/2001/REC-SVG-20010904/DTD/svg10.dtd">
<svg version="1.0" xmlns="http://www.w3.org/2000/svg"
 width="1024.000000pt" height="1024.000000pt" viewBox="0 0 1024.000000 1024.000000"
 preserveAspectRatio="xMidYMid meet">
<metadata>
Created by potrace 1.14, written by Peter Selinger 2001-2017
</metadata>
<g transform="translate(0.000000,1024.000000) scale(0.100000,-0.100000)"
fill="#000000" stroke="none">
<path d="M5047 9209 c-97 -11 -202 -63 -282 -139 -104 -101 -155 -221 -155
-368 0 -98 32 -207 82 -280 37 -53 124 -140 150 -148 13 -4 18 -16 18 -44 l0
-38 -87 -6 c-768 -54 -1359 -224 -1802 -516 l-119 -79 -58 31 c-194 105 -438
66 -599 -98 -65 -65 -114 -154 -135 -243 -17 -74 -8 -220 19 -296 l22 -60
-520 -1410 -519 -1410 -169 -5 c-148 -5 -173 -9 -210 -28 -145 -76 -197 -204
-158 -393 86 -430 540 -779 1240 -953 251 -62 480 -88 790 -88 397 0 683 43
1022 153 463 151 803 399 949 694 56 114 77 198 78 305 0 100 -22 158 -87 223
-69 69 -109 81 -296 87 l-164 5 -519 1410 -519 1410 20 65 c12 36 21 70 21 77
0 13 34 18 270 38 364 30 944 55 1298 55 l232 0 0 -2435 0 -2435 -40 0 c-118
0 -418 -62 -608 -126 -277 -93 -482 -212 -647 -377 -115 -115 -174 -204 -211
-322 -27 -85 -32 -200 -12 -267 16 -52 77 -121 133 -147 l45 -21 1599 0 1599
0 53 28 c122 63 161 173 124 347 -87 412 -597 750 -1305 865 -69 11 -144 20
-167 20 l-43 0 0 2441 0 2440 138 -5 c75 -3 247 -8 382 -11 427 -10 1157 -53
1243 -74 24 -5 31 -16 53 -79 l24 -72 -514 -1398 c-283 -768 -517 -1404 -521
-1414 -5 -14 -30 -17 -173 -20 -158 -3 -170 -5 -218 -30 -66 -35 -128 -106
-150 -170 -32 -96 -3 -280 63 -413 77 -152 233 -319 408 -437 204 -137 526
-269 805 -331 570 -127 1224 -103 1748 65 615 196 1007 550 1052 948 14 124
-10 207 -82 281 -69 71 -109 83 -298 89 l-165 5 -517 1405 c-285 773 -518
1412 -518 1420 0 8 9 39 20 68 67 175 17 392 -121 529 -161 161 -389 198 -591
97 l-66 -33 -126 84 c-356 237 -847 401 -1427 475 -129 16 -387 40 -436 40 -8
0 -13 14 -13 38 0 31 5 41 29 55 49 29 139 134 169 200 95 200 58 420 -97 577
-75 76 -185 136 -267 145 -27 4 -60 7 -74 9 -14 1 -56 -1 -93 -5z m-2005
-3825 c257 -698 468 -1272 468 -1276 0 -5 -427 -8 -950 -8 -554 0 -950 4 -950
9 0 9 896 2449 924 2516 9 21 21 35 28 33 7 -3 223 -576 480 -1274z m5120 -3
c258 -701 467 -1275 465 -1277 -2 -2 -431 -3 -953 -2 l-950 3 466 1265 c256
696 469 1271 474 1278 4 7 13 11 19 9 6 -2 222 -576 479 -1276z"/>
</g>
</svg>
